<svg id="Layer_2" data-name="Layer 2" xmlns="http://www.w3.org/2000/svg" viewBox="0 0 640 640"><defs><style>.cls-1,.cls-10,.cls-2,.cls-4,.cls-5,.cls-9{fill:none;}.cls-1{stroke:#b3b3b3;stroke-width:0.5px;}.cls-1,.cls-2,.cls-4,.cls-5,.cls-6,.cls-7,.cls-8,.cls-9{stroke-miterlimit:10;}.cls-1,.cls-2,.cls-6{stroke-dasharray:3;}.cls-2,.cls-4,.cls-5,.cls-7,.cls-8,.cls-9{stroke:blue;}.cls-3{fill:blue;}.cls-5{stroke-width:2px;}.cls-6,.cls-7,.cls-8{fill:#fff;}.cls-6{stroke:#ccc;}.cls-7,.cls-9{stroke-width:5px;}</style></defs><title>collaborative</title><path class="cls-1" d="M131.17,439.78a224.88,224.88,0,0,1-24.5-102.41c0-124.72,101.11-225.83,225.83-225.83,96.67,0,179.15,60.74,211.37,146.13"/><polygon class="cls-2" points="271.26 257.67 320.01 225.21 368.74 257.67 368.74 372.42 320.01 400.56 271.26 372.42 271.26 257.67"/><line class="cls-2" x1="271.26" y1="257.67" x2="320.01" y2="285.82"/><line class="cls-2" x1="368.74" y1="257.67" x2="320.01" y2="285.82"/><line class="cls-2" x1="320.01" y1="400.55" x2="320.01" y2="285.82"/><polygon class="cls-2" points="271.26 257.67 320.01 225.21 368.74 257.67 368.74 372.42 320.01 400.56 271.26 372.42 271.26 257.67"/><line class="cls-2" x1="271.26" y1="257.67" x2="320.01" y2="285.82"/><line class="cls-2" x1="368.74" y1="257.67" x2="320.01" y2="285.82"/><line class="cls-2" x1="320.01" y1="400.55" x2="320.01" y2="285.82"/><polygon class="cls-2" points="271.26 257.67 320.01 225.21 397.07 274.45 397.07 389.19 348.33 417.33 271.26 372.42 271.26 257.67"/><line class="cls-2" x1="271.26" y1="257.67" x2="348.33" y2="302.6"/><line class="cls-2" x1="397.07" y1="274.45" x2="348.33" y2="302.6"/><line class="cls-2" x1="348.33" y1="417.33" x2="348.33" y2="302.6"/><polygon class="cls-2" points="271.26 257.67 320.01 225.21 397.07 274.45 397.07 389.19 348.33 417.33 271.26 372.42 271.26 257.67"/><line class="cls-2" x1="271.26" y1="257.67" x2="348.33" y2="302.6"/><line class="cls-2" x1="397.07" y1="274.45" x2="348.33" y2="302.6"/><line class="cls-2" x1="348.33" y1="417.33" x2="348.33" y2="302.6"/><polygon class="cls-2" points="271.26 337.85 320.01 305.39 368.74 337.85 368.74 372.42 320.01 400.56 271.26 372.42 271.26 337.85"/><line class="cls-2" x1="271.26" y1="337.85" x2="320.01" y2="366"/><line class="cls-2" x1="368.74" y1="337.85" x2="320.01" y2="366"/><line class="cls-2" x1="320.01" y1="400.55" x2="320.01" y2="366"/><polygon class="cls-2" points="271.26 337.85 320.01 305.39 368.74 337.85 368.74 372.42 320.01 400.56 271.26 372.42 271.26 337.85"/><line class="cls-2" x1="271.26" y1="337.85" x2="320.01" y2="366"/><line class="cls-2" x1="368.74" y1="337.85" x2="320.01" y2="366"/><line class="cls-2" x1="320.01" y1="400.55" x2="320.01" y2="366"/><path class="cls-3" d="M193.38,180.58l-0.15.17c-4.77,5.73-11.13,8.88-17.9,8.88s-13.13-3.15-17.9-8.88l-0.14-.17,0-.22a18.45,18.45,0,0,1,8.85-13.61l0.34-.2,0.27,0.28a11.79,11.79,0,0,0,17.11,0l0.27-.28,0.34,0.2a18.45,18.45,0,0,1,8.85,13.61Zm-18-12.48a10.74,10.74,0,1,0-10.74-10.74A10.76,10.76,0,0,0,175.33,168.1Z"/><path class="cls-3" d="M130,378l-0.15.17c-4.77,5.73-11.13,8.88-17.9,8.88s-13.13-3.15-17.9-8.88L94,378l0-.22a18.45,18.45,0,0,1,8.85-13.61l0.34-.2,0.27,0.28a11.79,11.79,0,0,0,17.11,0l0.27-.28,0.34,0.2A18.45,18.45,0,0,1,130,377.75Zm-18-12.48a10.74,10.74,0,1,0-10.74-10.74A10.76,10.76,0,0,0,112,365.49Z"/><path class="cls-3" d="M372.17,124l-0.15.17c-4.77,5.73-11.13,8.88-17.9,8.88s-13.13-3.15-17.9-8.88l-0.14-.17,0-.22A18.45,18.45,0,0,1,345,110.16l0.34-.2,0.27,0.28a11.79,11.79,0,0,0,17.11,0l0.27-.28,0.34,0.2a18.45,18.45,0,0,1,8.85,13.61Zm-18-12.48a10.74,10.74,0,1,0-10.74-10.74A10.76,10.76,0,0,0,354.12,111.51Z"/><path class="cls-3" d="M533.55,217.3l-0.15.17c-4.77,5.73-11.13,8.88-17.9,8.88s-13.13-3.15-17.9-8.88l-0.14-.17,0-.22a18.45,18.45,0,0,1,8.85-13.61l0.34-.2,0.27,0.28a11.79,11.79,0,0,0,17.11,0l0.27-.28,0.34,0.2a18.45,18.45,0,0,1,8.85,13.61Zm-18-12.48a10.74,10.74,0,1,0-10.74-10.74A10.76,10.76,0,0,0,515.5,204.82Z"/><path class="cls-4" d="M278,244.92a74.4,74.4,0,0,0-74.43-73.36"/><polygon class="cls-3" points="281.98 241.5 281.23 240.84 277.96 244.53 274.52 241.01 273.8 241.71 278 246 281.98 241.5"/><path class="cls-5" d="M333.33,424.33c0,32.3,34.17,66.15,66.57,67.62"/><polygon class="cls-3" points="392.67 499.48 391.42 497.91 399.14 491.77 392.46 484.52 393.93 483.17 402.07 492 392.67 499.48"/><path class="cls-4" d="M489,219.67c-43.24,0-11.39,61.59-70.85,60.11"/><polygon class="cls-3" points="421.49 275.68 422.17 276.41 418.54 279.75 422.13 283.13 421.45 283.85 417.07 279.74 421.49 275.68"/><path class="cls-4" d="M145.08,371c56.67,26.38,30.49-66.18,103-29.57"/><polygon class="cls-3" points="243.26 343.71 242.97 342.75 247.68 341.29 245.87 336.7 246.81 336.33 249 341.93 243.26 343.71"/><path class="cls-4" d="M354.08,142c0,32.72-52.11,21.71-40.9,58.71"/><polygon class="cls-3" points="308.37 198.63 308.88 197.77 313.1 200.33 315.34 195.94 316.23 196.4 313.5 201.74 308.37 198.63"/><line class="cls-6" x1="395.49" y1="465.54" x2="458.27" y2="501.79"/><line class="cls-6" x1="521.03" y1="465.54" x2="458.27" y2="501.79"/><line class="cls-6" x1="458.27" y1="574.26" x2="458.27" y2="501.79"/><line class="cls-6" x1="422.01" y1="564.94" x2="458.26" y2="502.17"/><line class="cls-6" x1="422.01" y1="439.41" x2="458.26" y2="502.17"/><line class="cls-6" x1="530.73" y1="502.17" x2="458.26" y2="502.17"/><line class="cls-6" x1="396.05" y1="537.79" x2="458.61" y2="501.16"/><line class="cls-6" x1="458.14" y1="428.69" x2="458.61" y2="501.16"/><line class="cls-6" x1="521.6" y1="537" x2="458.61" y2="501.16"/><line class="cls-6" x1="385.82" y1="499.2" x2="458.27" y2="501.79"/><line class="cls-6" x1="496.7" y1="440.34" x2="458.27" y2="501.79"/><line class="cls-6" x1="492.25" y1="565.8" x2="458.27" y2="501.79"/><polygon class="cls-7" points="418.3 479.09 458.26 452.48 498.22 479.09 498.22 525.24 458.26 548.3 418.3 525.24 418.3 479.09"/><line class="cls-8" x1="418.3" y1="479.09" x2="458.26" y2="502.17"/><line class="cls-8" x1="498.22" y1="479.09" x2="458.26" y2="502.17"/><line class="cls-8" x1="458.26" y1="548.31" x2="458.26" y2="502.17"/><polygon class="cls-9" points="271.26 316.13 320.01 283.67 368.74 316.13 368.74 372.42 320.01 400.56 271.26 372.42 271.26 316.13"/><line class="cls-4" x1="271.26" y1="316.13" x2="320.01" y2="344.28"/><line class="cls-4" x1="368.74" y1="316.13" x2="320.01" y2="344.28"/><line class="cls-4" x1="320.01" y1="400.55" x2="320.01" y2="344.28"/><polygon class="cls-9" points="271.26 316.13 320.01 283.67 368.74 316.13 368.74 372.42 320.01 400.56 271.26 372.42 271.26 316.13"/><line class="cls-4" x1="271.26" y1="316.13" x2="320.01" y2="344.28"/><line class="cls-4" x1="368.74" y1="316.13" x2="320.01" y2="344.28"/><line class="cls-4" x1="320.01" y1="400.55" x2="320.01" y2="344.28"/><polygon class="cls-7" points="418.3 479.09 458.26 452.48 498.22 479.09 498.22 525.24 458.26 548.3 418.3 525.24 418.3 479.09"/><line class="cls-8" x1="418.3" y1="479.09" x2="458.26" y2="502.17"/><line class="cls-8" x1="498.22" y1="479.09" x2="458.26" y2="502.17"/><line class="cls-8" x1="458.26" y1="548.31" x2="458.26" y2="502.17"/><rect class="cls-10" width="640" height="640"/></svg>