<svg id="Layer_1" data-name="Layer 1" xmlns="http://www.w3.org/2000/svg" viewBox="0 0 303.53 163.95"><defs><style>.cls-1,.cls-3,.cls-5,.cls-6,.cls-7,.cls-8,.cls-9{fill:none;}.cls-2,.cls-4{fill:blue;}.cls-3,.cls-5,.cls-6,.cls-7,.cls-8,.cls-9{stroke:blue;stroke-miterlimit:10;}.cls-4{font-size:6.75px;font-family:Titillium Web;}.cls-5{stroke-dasharray:2.84 2.84;}.cls-6{stroke-dasharray:2.95 2.95;}.cls-7{stroke-dasharray:3.16 3.16;}.cls-8{stroke-width:0.5px;stroke-dasharray:2;}.cls-9{stroke-width:2px;}</style></defs><title>howitworks-3</title><rect class="cls-1" width="303.53" height="163.95"/><path class="cls-2" d="M208.61,131.38a1.68,1.68,0,1,0-1.19-.49A1.69,1.69,0,0,0,208.61,131.38Z" transform="translate(-151.32 -78.02)"/><path class="cls-2" d="M214,131.38a1.68,1.68,0,1,0-1.19-.49A1.69,1.69,0,0,0,214,131.38Z" transform="translate(-151.32 -78.02)"/><path class="cls-2" d="M224.8,157.6a1.68,1.68,0,1,0-1.19-.49A1.69,1.69,0,0,0,224.8,157.6Z" transform="translate(-151.32 -78.02)"/><path class="cls-2" d="M214,166.7a1.68,1.68,0,1,0-1.19-.49A1.69,1.69,0,0,0,214,166.7Z" transform="translate(-151.32 -78.02)"/><path class="cls-2" d="M225.61,175.79a1.68,1.68,0,1,0-1.19-.49A1.69,1.69,0,0,0,225.61,175.79Z" transform="translate(-151.32 -78.02)"/><path class="cls-2" d="M219.37,131.38a1.68,1.68,0,1,0-1.19-.49A1.69,1.69,0,0,0,219.37,131.38Z" transform="translate(-151.32 -78.02)"/><rect class="cls-3" x="51.92" y="44.96" width="102.75" height="70.79"/><line class="cls-3" x1="51.92" y1="58.24" x2="154.67" y2="58.24"/><text class="cls-4" transform="translate(85.35 54.11)">ww<tspan x="10.29" y="0">w</tspan><tspan x="15.24" y="0">.spkl.xyz/link/</tspan></text><line class="cls-3" x1="85.35" y1="58.24" x2="85.35" y2="115.75"/><line class="cls-3" x1="57.29" y1="77.9" x2="79.21" y2="77.9"/><line class="cls-3" x1="57.29" y1="87.09" x2="79.21" y2="87.09"/><line class="cls-3" x1="57.29" y1="96.09" x2="79.21" y2="96.09"/><path class="cls-2" d="M378.19,158.5l-0.05.06a7.75,7.75,0,0,1-12.35,0l0-.06v-0.08a6.36,6.36,0,0,1,3.05-4.69l0.12-.07,0.09,0.1a4.07,4.07,0,0,0,5.9,0l0.09-.1,0.12,0.07a6.37,6.37,0,0,1,3.05,4.69v0.08ZM372,154.2a3.71,3.71,0,1,0-3.71-3.71A3.71,3.71,0,0,0,372,154.2Z" transform="translate(-151.32 -78.02)"/><path class="cls-2" d="M378.19,131l-0.05.06a7.75,7.75,0,0,1-12.35,0l0-.06v-0.08a6.36,6.36,0,0,1,3.05-4.69l0.12-.07,0.09,0.1a4.07,4.07,0,0,0,5.9,0l0.09-.1,0.12,0.07a6.37,6.37,0,0,1,3.05,4.69V131ZM372,126.71a3.71,3.71,0,1,0-3.71-3.71A3.71,3.71,0,0,0,372,126.71Z" transform="translate(-151.32 -78.02)"/><path class="cls-2" d="M378.19,183.58l-0.05.06a7.75,7.75,0,0,1-12.35,0l0-.06V183.5a6.36,6.36,0,0,1,3.05-4.69l0.12-.07,0.09,0.1a4.07,4.07,0,0,0,5.9,0l0.09-.1,0.12,0.07a6.37,6.37,0,0,1,3.05,4.69v0.08ZM372,179.28a3.71,3.71,0,1,0-3.71-3.71A3.71,3.71,0,0,0,372,179.28Z" transform="translate(-151.32 -78.02)"/><path class="cls-3" d="M313.73,161.83q0.71,0.31,1.39.56" transform="translate(-151.32 -78.02)"/><path class="cls-5" d="M317.82,163.25c17.37,4.37,15-19.68,39.81-8.89" transform="translate(-151.32 -78.02)"/><path class="cls-3" d="M358.92,154.94l1.35,0.65" transform="translate(-151.32 -78.02)"/><polygon class="cls-2" points="164 88.78 164.9 88.36 162.78 83.9 167.37 82.11 167.01 81.18 161.41 83.36 164 88.78"/><polygon class="cls-2" points="204.19 79.86 203.89 78.91 208.59 77.43 206.77 72.84 207.71 72.48 209.92 78.06 204.19 79.86"/><path class="cls-3" d="M313.82,175.88l1.49,0.14" transform="translate(-151.32 -78.02)"/><path class="cls-6" d="M318.25,176.32c25.68,2.82,13.68,7.45,38.94,6.58" transform="translate(-151.32 -78.02)"/><path class="cls-3" d="M358.66,182.84l1.5-.07" transform="translate(-151.32 -78.02)"/><polygon class="cls-2" points="165.34 102.32 166.09 101.67 162.87 97.93 166.83 94.99 166.24 94.19 161.41 97.77 165.34 102.32"/><polygon class="cls-2" points="205.64 108.91 204.94 108.2 208.45 104.74 204.75 101.49 205.41 100.74 209.92 104.7 205.64 108.91"/><path class="cls-3" d="M313.72,147.55q0.72-.24,1.41-0.51" transform="translate(-151.32 -78.02)"/><path class="cls-7" d="M318,145.77c17.75-8.9,15.9-28.89,40.6-17.88" transform="translate(-151.32 -78.02)"/><path class="cls-3" d="M360.05,128.55l1.35,0.66" transform="translate(-151.32 -78.02)"/><polygon class="cls-2" points="166.89 72.19 167.28 71.27 162.74 69.36 164.98 64.97 164.08 64.51 161.36 69.86 166.89 72.19"/><polygon class="cls-2" points="205.33 53.53 205.02 52.58 209.71 51.06 207.85 46.49 208.78 46.11 211.04 51.67 205.33 53.53"/><polygon class="cls-8" points="106.5 73.13 117.2 66 127.9 73.13 127.9 98.31 117.2 104.49 106.5 98.31 106.5 73.13"/><line class="cls-8" x1="106.5" y1="73.13" x2="117.2" y2="79.31"/><line class="cls-8" x1="127.9" y1="73.13" x2="117.2" y2="79.31"/><line class="cls-8" x1="117.2" y1="104.49" x2="117.2" y2="79.31"/><polygon class="cls-8" points="106.5 73.13 117.2 66 127.9 73.13 127.9 98.31 117.2 104.49 106.5 98.31 106.5 73.13"/><line class="cls-8" x1="106.5" y1="73.13" x2="117.2" y2="79.31"/><line class="cls-8" x1="127.9" y1="73.13" x2="117.2" y2="79.31"/><line class="cls-8" x1="117.2" y1="104.49" x2="117.2" y2="79.31"/><polygon class="cls-8" points="106.5 73.13 117.2 66 134.12 76.81 134.12 102 123.42 108.17 106.5 98.31 106.5 73.13"/><line class="cls-8" x1="106.5" y1="73.13" x2="123.42" y2="82.99"/><line class="cls-8" x1="134.12" y1="76.81" x2="123.42" y2="82.99"/><line class="cls-8" x1="123.42" y1="108.17" x2="123.42" y2="82.99"/><polygon class="cls-8" points="106.5 73.13 117.2 66 134.12 76.81 134.12 102 123.42 108.17 106.5 98.31 106.5 73.13"/><line class="cls-8" x1="106.5" y1="73.13" x2="123.42" y2="82.99"/><line class="cls-8" x1="134.12" y1="76.81" x2="123.42" y2="82.99"/><line class="cls-8" x1="123.42" y1="108.17" x2="123.42" y2="82.99"/><polygon class="cls-8" points="106.5 90.73 117.2 83.6 127.9 90.73 127.9 98.31 117.2 104.49 106.5 98.31 106.5 90.73"/><line class="cls-8" x1="106.5" y1="90.73" x2="117.2" y2="96.91"/><line class="cls-8" x1="127.9" y1="90.73" x2="117.2" y2="96.91"/><line class="cls-8" x1="117.2" y1="104.49" x2="117.2" y2="96.91"/><polygon class="cls-8" points="106.5 90.73 117.2 83.6 127.9 90.73 127.9 98.31 117.2 104.49 106.5 98.31 106.5 90.73"/><line class="cls-8" x1="106.5" y1="90.73" x2="117.2" y2="96.91"/><line class="cls-8" x1="127.9" y1="90.73" x2="117.2" y2="96.91"/><line class="cls-8" x1="117.2" y1="104.49" x2="117.2" y2="96.91"/><polygon class="cls-9" points="106.5 85.96 117.2 78.83 127.9 85.96 127.9 98.31 117.2 104.49 106.5 98.31 106.5 85.96"/><line class="cls-3" x1="106.5" y1="85.96" x2="117.2" y2="92.14"/><line class="cls-3" x1="127.9" y1="85.96" x2="117.2" y2="92.14"/><line class="cls-3" x1="117.2" y1="104.49" x2="117.2" y2="92.14"/></svg>