<svg id="Layer_3" data-name="Layer 3" xmlns="http://www.w3.org/2000/svg" viewBox="0 0 303.53 163.95"><defs><style>.cls-1,.cls-3,.cls-4{fill:blue;}.cls-10,.cls-2,.cls-5,.cls-6,.cls-7{fill:none;}.cls-2,.cls-5,.cls-6,.cls-7,.cls-8,.cls-9{stroke:blue;}.cls-2,.cls-8,.cls-9{stroke-miterlimit:10;}.cls-3{font-size:15.01px;}.cls-3,.cls-4{font-family:Titillium Web;}.cls-4{font-size:6.75px;}.cls-6{stroke-dasharray:3.13 3.13;}.cls-7{stroke-dasharray:3.08 3.08;}.cls-8,.cls-9{fill:#fff;}.cls-8{stroke-width:5px;}</style></defs><title>howitworks-2</title><polyline class="cls-1" points="96.82 115.75 96.82 95.87 116.71 95.87"/><polyline class="cls-2" points="96.82 115.75 62.36 115.75 62.36 44.96 116.71 44.96 116.71 95.87 96.82 115.75"/><text class="cls-3" transform="translate(76.15 81.85)">.spk</text><path class="cls-1" d="M301.68,131.38a1.68,1.68,0,1,0-1.19-.49A1.69,1.69,0,0,0,301.68,131.38Z" transform="translate(-151.32 -78.02)"/><path class="cls-1" d="M307.06,131.38a1.68,1.68,0,1,0-1.19-.49A1.69,1.69,0,0,0,307.06,131.38Z" transform="translate(-151.32 -78.02)"/><path class="cls-1" d="M317.86,157.6a1.68,1.68,0,1,0-1.19-.49A1.69,1.69,0,0,0,317.86,157.6Z" transform="translate(-151.32 -78.02)"/><path class="cls-1" d="M307.06,166.7a1.68,1.68,0,1,0-1.19-.49A1.69,1.69,0,0,0,307.06,166.7Z" transform="translate(-151.32 -78.02)"/><path class="cls-1" d="M318.68,175.79a1.68,1.68,0,1,0-1.19-.49A1.69,1.69,0,0,0,318.68,175.79Z" transform="translate(-151.32 -78.02)"/><path class="cls-1" d="M312.44,131.38a1.68,1.68,0,1,0-1.19-.49A1.69,1.69,0,0,0,312.44,131.38Z" transform="translate(-151.32 -78.02)"/><rect class="cls-2" x="144.98" y="44.96" width="102.75" height="70.79"/><line class="cls-2" x1="144.98" y1="58.24" x2="247.73" y2="58.24"/><text class="cls-4" transform="translate(178.42 54.11)">ww<tspan x="10.29" y="0">w</tspan><tspan x="15.24" y="0">.spkl.xyz/link/</tspan></text><path class="cls-5" d="M277.16,193.59a14.69,14.69,0,0,0,1.49-.21" transform="translate(-151.32 -78.02)"/><path class="cls-6" d="M281.48,192.14l0.16-.16a5.5,5.5,0,0,0,1.19-3.83l-0.54-19.66q0-4.83,1.57-6.89a8.75,8.75,0,0,1,4.07-2.51" transform="translate(-151.32 -78.02)"/><path class="cls-5" d="M289.42,158.6q0.69-.2,1.45-0.38-0.76-.19-1.45-0.39" transform="translate(-151.32 -78.02)"/><path class="cls-7" d="M286.55,156.72a7.15,7.15,0,0,1-2.69-2.13q-1.65-2.34-1.65-7.24l0.54-18.43a6.56,6.56,0,0,0-1.11-4.06,3.49,3.49,0,0,0-1.37-1" transform="translate(-151.32 -78.02)"/><path class="cls-5" d="M278.8,123.37a11.89,11.89,0,0,0-1.49-.19" transform="translate(-151.32 -78.02)"/><polygon class="cls-8" points="200.08 81.11 212.5 72.84 224.92 81.11 224.92 95.45 212.5 102.63 200.08 95.45 200.08 81.11"/><line class="cls-9" x1="200.08" y1="81.11" x2="212.5" y2="88.28"/><line class="cls-9" x1="224.92" y1="81.11" x2="212.5" y2="88.28"/><line class="cls-9" x1="212.5" y1="102.63" x2="212.5" y2="88.28"/><line class="cls-2" x1="178.42" y1="58.24" x2="178.42" y2="115.75"/><line class="cls-2" x1="150.35" y1="77.9" x2="172.27" y2="77.9"/><line class="cls-2" x1="150.35" y1="87.09" x2="172.27" y2="87.09"/><line class="cls-2" x1="150.35" y1="96.09" x2="172.27" y2="96.09"/><rect class="cls-10" width="303.53" height="163.95"/></svg>