<svg id="Layer_1" data-name="Layer 1" xmlns="http://www.w3.org/2000/svg" viewBox="0 0 303.53 163.95"><defs><style>.cls-1,.cls-2,.cls-3,.cls-7,.cls-8,.cls-9{fill:none;}.cls-2,.cls-3,.cls-7,.cls-8,.cls-9{stroke:blue;}.cls-2,.cls-3{stroke-miterlimit:10;}.cls-3{stroke-width:0.5px;stroke-dasharray:3;}.cls-4{font-size:5.69px;font-weight:700;}.cls-4,.cls-5,.cls-6{fill:blue;}.cls-4,.cls-6{font-family:Titillium Web;}.cls-6{font-size:15.01px;}.cls-8{stroke-dasharray:3.13 3.13;}.cls-9{stroke-dasharray:3.08 3.08;}</style></defs><title>howitworks</title><rect class="cls-1" width="303.53" height="163.95"/><rect class="cls-2" x="95.34" y="104.85" width="33.71" height="3.96"/><line class="cls-3" x1="95.34" y1="106.83" x2="129.06" y2="106.83"/><text class="cls-4" transform="translate(90.58 108.81)">B</text><polygon class="cls-5" points="122.49 104.85 124.21 105.84 124.21 107.82 122.49 108.81 120.78 107.82 120.78 105.84 122.49 104.85"/><text class="cls-4" transform="translate(90.44 116.1)">C</text><rect class="cls-2" x="95.21" y="112.16" width="33.71" height="3.96"/><line class="cls-3" x1="95.21" y1="114.14" x2="128.92" y2="114.14"/><polygon class="cls-5" points="111.4 112.16 113.11 113.15 113.11 115.13 111.4 116.12 109.68 115.13 109.68 113.15 111.4 112.16"/><text class="cls-4" transform="translate(90.44 101.68)">A</text><rect class="cls-2" x="95.21" y="97.72" width="33.71" height="3.96"/><line class="cls-3" x1="95.21" y1="99.7" x2="128.93" y2="99.7"/><polygon class="cls-5" points="102.88 97.72 104.6 98.71 104.6 100.69 102.88 101.68 101.16 100.69 101.16 98.71 102.88 97.72"/><polygon class="cls-2" points="110.02 45.71 129.6 57.01 129.6 79.62 110.02 90.92 90.44 79.62 90.44 57.01 110.02 45.71"/><path class="cls-5" d="M270,150.86l-0.69-.15-1.74-7,0-.06a0.34,0.34,0,0,0-.45-0.17h0l-1.22.55-0.49-2,0-.06a0.34,0.34,0,0,0-.45-0.17h0l-5.08,2.27a9.63,9.63,0,0,0-1-.25,16,16,0,0,0-4.5-.29,16.15,16.15,0,0,0-2.29.46,5,5,0,0,1,2.45-3.35,0.1,0.1,0,0,0-.09-0.17,4.62,4.62,0,0,0-2.94,3.26,5.14,5.14,0,0,1,1.24-3.21,0.1,0.1,0,0,0-.14-0.13,4.56,4.56,0,0,0-1.56,4.65,1.45,1.45,0,0,0-.24.7h0v1.51a0.48,0.48,0,0,0,.39.47,0.1,0.1,0,0,0,.11-0.06,1,1,0,0,1,1.25-.53l1.12,0.44-0.24.52-2.09.3h0a0.31,0.31,0,0,0-.23.18l-1.55,3.45a0.13,0.13,0,0,0,.23.12l1.83-3.1,2.11-.3a0.34,0.34,0,0,0,.26-0.19l0.34-.73,0.84,0.33a8.27,8.27,0,0,0,1,.31l1.44,1.91,0.2,2.56a0.13,0.13,0,0,0,.25,0l0.21-2.69a0.27,0.27,0,0,0-.05-0.19v0l-0.91-1.21,0.61,0.31a12.71,12.71,0,0,0,7.07,1,12.66,12.66,0,0,0-1.56-2.19,11.63,11.63,0,0,0,1.73-.62,10.67,10.67,0,0,0-.93-0.85l1.42-1,1,4,0,0.06a0.27,0.27,0,0,0,.32.2l1-.2a0.14,0.14,0,0,0,0-.27l-0.69-.15-1-4,0.93-.67,1.67,6.71,0,0.06a0.27,0.27,0,0,0,.32.2l1-.2A0.14,0.14,0,0,0,270,150.86Zm-7.33-5.39c-0.28-.18-0.59-0.36-0.91-0.53l3.06-2.22,0.4,1.6Z" transform="translate(-148.45 -78.45)"/><polyline class="cls-5" points="193.21 116.49 193.21 96.61 213.09 96.61"/><polyline class="cls-2" points="193.21 116.49 158.75 116.49 158.75 45.71 213.09 45.71 213.09 96.61 193.21 116.49"/><text class="cls-6" transform="translate(172.53 82.59)">.spk</text><path class="cls-7" d="M283.94,194.57a14.68,14.68,0,0,0,1.49-.21" transform="translate(-148.45 -78.45)"/><path class="cls-8" d="M288.27,193.12l0.16-.16a5.5,5.5,0,0,0,1.19-3.83l-0.54-19.66q0-4.83,1.57-6.89a8.75,8.75,0,0,1,4.07-2.51" transform="translate(-148.45 -78.45)"/><path class="cls-7" d="M296.2,159.59q0.69-.2,1.45-0.38-0.76-.19-1.45-0.39" transform="translate(-148.45 -78.45)"/><path class="cls-9" d="M293.33,157.7a7.15,7.15,0,0,1-2.69-2.13q-1.65-2.34-1.65-7.24l0.54-18.43a6.56,6.56,0,0,0-1.11-4.06,3.49,3.49,0,0,0-1.37-1" transform="translate(-148.45 -78.45)"/><path class="cls-7" d="M285.58,124.35a11.89,11.89,0,0,0-1.49-.19" transform="translate(-148.45 -78.45)"/></svg>