<svg id="Layer_1" data-name="Layer 1" xmlns="http://www.w3.org/2000/svg" viewBox="0 0 640 480"><defs><style>.cls-1,.cls-10,.cls-11,.cls-12,.cls-13,.cls-2,.cls-3,.cls-4,.cls-8,.cls-9{fill:none;}.cls-1,.cls-13{stroke:#999;}.cls-1,.cls-12,.cls-13,.cls-2,.cls-3,.cls-4{stroke-miterlimit:10;}.cls-1,.cls-3{stroke-width:5px;}.cls-2{stroke:gray;}.cls-10,.cls-11,.cls-12,.cls-3,.cls-4,.cls-9{stroke:blue;}.cls-5{fill:gray;}.cls-6{opacity:0.2;}.cls-16,.cls-7{fill:blue;}.cls-10{stroke-dasharray:3.04 3.04;}.cls-11{stroke-dasharray:2.99 2.99;}.cls-12{stroke-dasharray:3;}.cls-14,.cls-15{fill:#999;}.cls-15,.cls-16{font-size:14px;font-family:Titillium Web;font-weight:700;}</style></defs><title>narrative</title><polygon class="cls-1" points="42 192.37 90.75 164.24 139.49 192.37 139.49 248.66 90.75 276.8 42 248.66 42 192.37"/><line class="cls-2" x1="42" y1="192.37" x2="90.75" y2="235.67"/><line class="cls-2" x1="139.49" y1="192.37" x2="90.75" y2="235.67"/><line class="cls-2" x1="90.75" y1="276.8" x2="90.75" y2="235.67"/><polygon class="cls-3" points="498.41 192.37 547.16 145.82 595.89 220.53 595.89 248.66 547.16 276.8 498.41 248.66 498.41 192.37"/><line class="cls-4" x1="498.41" y1="192.37" x2="547.16" y2="220.53"/><line class="cls-4" x1="595.89" y1="220.53" x2="547.16" y2="220.53"/><line class="cls-4" x1="547.16" y1="276.8" x2="547.16" y2="220.53"/><path class="cls-5" d="M54.71,298.93a9.56,9.56,0,0,1-2.85,1.87c-11,4-6.35,11.71-6.2,11.74a6.32,6.32,0,0,1,1.45-1.68c5.28-3.88,6.35-8.35,6.35-8.35a16,16,0,0,1-5.88,8.72c-1,.74-1.74,2.56-2,4.37,0,0,.74-0.3,1.05-0.38a5.85,5.85,0,0,1,.82-2.26,7.78,7.78,0,0,0,9-6.35A11.4,11.4,0,0,0,54.71,298.93Z"/><g class="cls-6"><path class="cls-5" d="M80.63,298.93a9.56,9.56,0,0,1-2.85,1.87c-11,4-6.35,11.71-6.2,11.74A6.32,6.32,0,0,1,73,310.85c5.28-3.88,6.35-8.35,6.35-8.35a16,16,0,0,1-5.88,8.72c-1,.74-1.74,2.56-2,4.37,0,0,.74-0.3,1.05-0.38a5.85,5.85,0,0,1,.82-2.26,7.78,7.78,0,0,0,9-6.35A11.4,11.4,0,0,0,80.63,298.93Z"/></g><g class="cls-6"><path class="cls-5" d="M135.12,298.93a9.56,9.56,0,0,1-2.85,1.87c-11,4-6.35,11.71-6.2,11.74a6.32,6.32,0,0,1,1.45-1.68c5.28-3.88,6.35-8.35,6.35-8.35a16,16,0,0,1-5.88,8.72c-1,.74-1.74,2.56-2,4.37,0,0,.74-0.3,1.05-0.38a5.85,5.85,0,0,1,.82-2.26,7.78,7.78,0,0,0,9-6.35A11.4,11.4,0,0,0,135.12,298.93Z"/></g><g class="cls-6"><path class="cls-5" d="M107.88,298.93a9.56,9.56,0,0,1-2.85,1.87c-11,4-6.35,11.71-6.2,11.74a6.32,6.32,0,0,1,1.45-1.68c5.28-3.88,6.35-8.35,6.35-8.35a16,16,0,0,1-5.88,8.72c-1,.74-1.74,2.56-2,4.37,0,0,.74-0.3,1.05-0.38a5.85,5.85,0,0,1,.82-2.26,7.78,7.78,0,0,0,9-6.35A11.4,11.4,0,0,0,107.88,298.93Z"/></g><path class="cls-7" d="M511.12,298.93a9.56,9.56,0,0,1-2.85,1.87c-11,4-6.35,11.71-6.2,11.74a6.32,6.32,0,0,1,1.45-1.68c5.28-3.88,6.35-8.35,6.35-8.35a16,16,0,0,1-5.88,8.72c-1,.74-1.74,2.56-2,4.37,0,0,.74-0.3,1.05-0.38a5.85,5.85,0,0,1,.82-2.26,7.78,7.78,0,0,0,9-6.35A11.4,11.4,0,0,0,511.12,298.93Z"/><path class="cls-7" d="M537,298.93a9.56,9.56,0,0,1-2.85,1.87c-11,4-6.35,11.71-6.2,11.74a6.32,6.32,0,0,1,1.45-1.68c5.28-3.88,6.35-8.35,6.35-8.35a16,16,0,0,1-5.88,8.72c-1,.74-1.74,2.56-2,4.37,0,0,.74-0.3,1.05-0.38a5.85,5.85,0,0,1,.82-2.26,7.78,7.78,0,0,0,9-6.35A11.4,11.4,0,0,0,537,298.93Z"/><path class="cls-7" d="M591.53,298.93a9.56,9.56,0,0,1-2.85,1.87c-11,4-6.35,11.71-6.2,11.74a6.32,6.32,0,0,1,1.45-1.68c5.28-3.88,6.35-8.35,6.35-8.35a16,16,0,0,1-5.88,8.72c-1,.74-1.74,2.56-2,4.37,0,0,.74-0.3,1.05-0.38a5.85,5.85,0,0,1,.82-2.26,7.78,7.78,0,0,0,9-6.35A11.4,11.4,0,0,0,591.53,298.93Z"/><path class="cls-7" d="M564.29,298.93a9.56,9.56,0,0,1-2.85,1.87c-11,4-6.35,11.71-6.2,11.74a6.32,6.32,0,0,1,1.45-1.68C562,307,563,302.5,563,302.5a16,16,0,0,1-5.88,8.72c-1,.74-1.74,2.56-2,4.37,0,0,.74-0.3,1.05-0.38A5.85,5.85,0,0,1,557,313a7.78,7.78,0,0,0,9-6.35A11.4,11.4,0,0,0,564.29,298.93Z"/><path class="cls-5" d="M49.8,339.54a2.73,2.73,0,0,1-.88,2.2,3.44,3.44,0,0,1-2.31.75h0l-0.21,1.65a3.64,3.64,0,0,1-1-.1l0.2-1.62a15.91,15.91,0,0,1-1.73-.29l-0.28-.06,0.18-1.45q1.1,0.15,2,.21l0.31-2.43a4.79,4.79,0,0,1-2-1,2.29,2.29,0,0,1-.6-1.68,2.5,2.5,0,0,1,.84-2.06,3.57,3.57,0,0,1,2.31-.68h0.18L47,331h1l-0.25,2q0.87,0.08,1.59.22l0.24,0.06-0.15,1.48q-1-.11-1.89-0.17l-0.28,2.25a4.83,4.83,0,0,1,2,1A2.35,2.35,0,0,1,49.8,339.54Zm-4.52-4a0.74,0.74,0,0,0,.21.55,2.39,2.39,0,0,0,.81.43l0.24-1.94Q45.28,334.63,45.28,335.54Zm2.66,4.13a0.81,0.81,0,0,0-.19-0.55,1.79,1.79,0,0,0-.68-0.41l-0.27,2.14A1.1,1.1,0,0,0,47.94,339.67Z"/><path class="cls-5" d="M79.65,339.54a2.73,2.73,0,0,1-.88,2.2,3.44,3.44,0,0,1-2.31.75h0l-0.21,1.65a3.64,3.64,0,0,1-1-.1l0.2-1.62a15.91,15.91,0,0,1-1.73-.29l-0.28-.06,0.18-1.45q1.1,0.15,2,.21l0.31-2.43a4.79,4.79,0,0,1-2-1,2.29,2.29,0,0,1-.6-1.68,2.5,2.5,0,0,1,.84-2.06,3.57,3.57,0,0,1,2.31-.68H76.6L76.85,331h1l-0.25,2q0.87,0.08,1.59.22l0.24,0.06-0.15,1.48q-1-.11-1.89-0.17l-0.28,2.25a4.83,4.83,0,0,1,2,1A2.35,2.35,0,0,1,79.65,339.54Zm-4.52-4a0.74,0.74,0,0,0,.21.55,2.39,2.39,0,0,0,.81.43l0.24-1.94Q75.13,334.63,75.13,335.54Zm2.66,4.13a0.81,0.81,0,0,0-.19-0.55,1.79,1.79,0,0,0-.68-0.41l-0.27,2.14A1.1,1.1,0,0,0,77.79,339.67Z"/><g class="cls-6"><path class="cls-5" d="M134.14,339.54a2.73,2.73,0,0,1-.88,2.2,3.44,3.44,0,0,1-2.31.75h0l-0.21,1.65a3.64,3.64,0,0,1-1-.1l0.2-1.62a15.91,15.91,0,0,1-1.73-.29l-0.28-.06,0.18-1.45q1.1,0.15,2,.21l0.31-2.43a4.79,4.79,0,0,1-2-1,2.29,2.29,0,0,1-.6-1.68,2.5,2.5,0,0,1,.84-2.06,3.57,3.57,0,0,1,2.31-.68h0.18l0.25-1.93h1l-0.25,2q0.87,0.08,1.59.22l0.24,0.06-0.15,1.48q-1-.11-1.89-0.17l-0.28,2.25a4.83,4.83,0,0,1,2,1A2.35,2.35,0,0,1,134.14,339.54Zm-4.52-4a0.74,0.74,0,0,0,.21.55,2.39,2.39,0,0,0,.81.43l0.24-1.94Q129.62,334.63,129.62,335.54Zm2.66,4.13a0.81,0.81,0,0,0-.19-0.55,1.79,1.79,0,0,0-.68-0.41l-0.27,2.14A1.1,1.1,0,0,0,132.28,339.67Z"/></g><path class="cls-5" d="M106.89,339.54a2.73,2.73,0,0,1-.88,2.2,3.44,3.44,0,0,1-2.31.75h0l-0.21,1.65a3.64,3.64,0,0,1-1-.1l0.2-1.62a15.91,15.91,0,0,1-1.73-.29l-0.28-.06,0.18-1.45q1.1,0.15,2,.21l0.31-2.43a4.79,4.79,0,0,1-2-1,2.29,2.29,0,0,1-.6-1.68,2.5,2.5,0,0,1,.84-2.06,3.57,3.57,0,0,1,2.31-.68h0.18L104.1,331h1l-0.25,2q0.87,0.08,1.59.22l0.24,0.06-0.15,1.48q-1-.11-1.89-0.17l-0.28,2.25a4.83,4.83,0,0,1,2,1A2.35,2.35,0,0,1,106.89,339.54Zm-4.52-4a0.74,0.74,0,0,0,.21.55,2.39,2.39,0,0,0,.81.43l0.24-1.94Q102.38,334.63,102.38,335.54Zm2.66,4.13a0.81,0.81,0,0,0-.19-0.55,1.79,1.79,0,0,0-.68-0.41l-0.27,2.14A1.1,1.1,0,0,0,105,339.67Z"/><rect class="cls-8" width="640" height="480"/><path class="cls-7" d="M508.17,339.54a2.73,2.73,0,0,1-.88,2.2,3.44,3.44,0,0,1-2.31.75h0l-0.21,1.65a3.64,3.64,0,0,1-1-.1l0.2-1.62a15.91,15.91,0,0,1-1.73-.29l-0.28-.06,0.18-1.45q1.1,0.15,2,.21l0.31-2.43a4.79,4.79,0,0,1-2-1,2.29,2.29,0,0,1-.6-1.68,2.5,2.5,0,0,1,.84-2.06,3.57,3.57,0,0,1,2.31-.68h0.18l0.25-1.93h1l-0.25,2q0.87,0.08,1.59.22l0.24,0.06-0.15,1.48q-1-.11-1.89-0.17l-0.28,2.25a4.83,4.83,0,0,1,2,1A2.35,2.35,0,0,1,508.17,339.54Zm-4.52-4a0.74,0.74,0,0,0,.21.55,2.39,2.39,0,0,0,.81.43l0.24-1.94Q503.66,334.63,503.66,335.54Zm2.66,4.13a0.81,0.81,0,0,0-.19-0.55,1.79,1.79,0,0,0-.68-0.41l-0.27,2.14A1.1,1.1,0,0,0,506.31,339.67Z"/><path class="cls-7" d="M538,339.54a2.73,2.73,0,0,1-.88,2.2,3.44,3.44,0,0,1-2.31.75h0l-0.21,1.65a3.64,3.64,0,0,1-1-.1l0.2-1.62a15.91,15.91,0,0,1-1.73-.29l-0.28-.06,0.18-1.45q1.1,0.15,2,.21l0.31-2.43a4.79,4.79,0,0,1-2-1,2.29,2.29,0,0,1-.6-1.68,2.5,2.5,0,0,1,.84-2.06,3.57,3.57,0,0,1,2.31-.68H535l0.25-1.93h1L536,333q0.87,0.08,1.59.22l0.24,0.06-0.15,1.48q-1-.11-1.89-0.17l-0.28,2.25a4.83,4.83,0,0,1,2,1A2.35,2.35,0,0,1,538,339.54Zm-4.52-4a0.74,0.74,0,0,0,.21.55,2.39,2.39,0,0,0,.81.43l0.24-1.94Q533.51,334.63,533.51,335.54Zm2.66,4.13a0.81,0.81,0,0,0-.19-0.55,1.79,1.79,0,0,0-.68-0.41L535,340.84A1.1,1.1,0,0,0,536.17,339.67Z"/><g class="cls-6"><path class="cls-7" d="M592.51,339.54a2.73,2.73,0,0,1-.88,2.2,3.44,3.44,0,0,1-2.31.75h0l-0.21,1.65a3.64,3.64,0,0,1-1-.1l0.2-1.62a15.91,15.91,0,0,1-1.73-.29l-0.28-.06,0.18-1.45q1.1,0.15,2,.21l0.31-2.43a4.79,4.79,0,0,1-2-1,2.29,2.29,0,0,1-.6-1.68,2.5,2.5,0,0,1,.84-2.06,3.57,3.57,0,0,1,2.31-.68h0.18l0.25-1.93h1l-0.25,2q0.87,0.08,1.59.22l0.24,0.06-0.15,1.48q-1-.11-1.89-0.17L590,336.86a4.83,4.83,0,0,1,2,1A2.35,2.35,0,0,1,592.51,339.54Zm-4.52-4a0.74,0.74,0,0,0,.21.55,2.39,2.39,0,0,0,.81.43l0.24-1.94Q588,334.63,588,335.54Zm2.66,4.13a0.81,0.81,0,0,0-.19-0.55,1.79,1.79,0,0,0-.68-0.41l-0.27,2.14A1.1,1.1,0,0,0,590.65,339.67Z"/></g><g class="cls-6"><path class="cls-7" d="M565.27,339.54a2.73,2.73,0,0,1-.88,2.2,3.44,3.44,0,0,1-2.31.75h0l-0.21,1.65a3.64,3.64,0,0,1-1-.1l0.2-1.62a15.91,15.91,0,0,1-1.73-.29l-0.28-.06,0.18-1.45q1.1,0.15,2,.21l0.31-2.43a4.79,4.79,0,0,1-2-1,2.29,2.29,0,0,1-.6-1.68,2.5,2.5,0,0,1,.84-2.06,3.57,3.57,0,0,1,2.31-.68h0.18l0.25-1.93h1l-0.25,2q0.87,0.08,1.59.22l0.24,0.06-0.15,1.48q-1-.11-1.89-0.17l-0.28,2.25a4.83,4.83,0,0,1,2,1A2.35,2.35,0,0,1,565.27,339.54Zm-4.52-4a0.74,0.74,0,0,0,.21.55,2.39,2.39,0,0,0,.81.43l0.24-1.94Q560.75,334.63,560.75,335.54Zm2.66,4.13a0.81,0.81,0,0,0-.19-0.55,1.79,1.79,0,0,0-.68-0.41l-0.27,2.14A1.1,1.1,0,0,0,563.41,339.67Z"/></g><path class="cls-9" d="M492.6,367.14q0.07,0.78.18,1.49"/><path class="cls-10" d="M493.52,371.58a6.21,6.21,0,0,0,1.53,2.41,8.42,8.42,0,0,0,5.86,1.82L531,375q7.38,0,10.54,2.4,2.57,2,4.37,7.81"/><path class="cls-9" d="M546.32,386.66q0.19,0.7.37,1.45,0.18-.75.38-1.45"/><path class="cls-11" d="M548,383.81q1.74-4.63,4.27-6.42,3.57-2.52,11.07-2.52l28.18,0.82a10,10,0,0,0,6.21-1.7,6.44,6.44,0,0,0,2.13-3.66"/><path class="cls-9" d="M600.13,368.87q0.1-.71.16-1.49"/><path class="cls-7" d="M556.39,413.85L543.24,427l-5.32-5.31a1.67,1.67,0,0,0-2.36,2.37l6.5,6.5a1.67,1.67,0,0,0,2.37,0h0l14.33-14.33A1.67,1.67,0,1,0,556.39,413.85Z"/><circle class="cls-12" cx="546.45" cy="423.39" r="25.05"/><line class="cls-13" x1="52.17" y1="83.88" x2="135.15" y2="83.88"/><line class="cls-13" x1="52.17" y1="108.59" x2="135.15" y2="108.59"/><polygon class="cls-14" points="122.14 103.72 126.37 106.16 126.37 111.03 122.14 113.47 117.92 111.03 117.92 106.16 122.14 103.72"/><text class="cls-15" transform="translate(37.61 88.75)">A</text><text class="cls-15" transform="translate(37.61 112.79)">B</text><polygon class="cls-14" points="71.04 79 75.26 81.44 75.26 86.31 71.04 88.75 66.82 86.31 66.82 81.44 71.04 79"/><polygon class="cls-1" points="275.86 172.79 324.61 164.24 373.36 224.44 373.36 248.66 324.61 276.8 275.86 248.66 275.86 172.79"/><line class="cls-2" x1="275.86" y1="172.79" x2="324.61" y2="220.53"/><line class="cls-2" x1="373.36" y1="224.43" x2="324.61" y2="220.53"/><line class="cls-2" x1="324.61" y1="276.8" x2="324.61" y2="220.53"/><path class="cls-5" d="M287.68,298.93a9.56,9.56,0,0,1-2.85,1.87c-11,4-6.35,11.71-6.2,11.74a6.32,6.32,0,0,1,1.45-1.68c5.28-3.88,6.35-8.35,6.35-8.35a16,16,0,0,1-5.88,8.72c-1,.74-1.74,2.56-2,4.37,0,0,.74-0.3,1.05-0.38a5.85,5.85,0,0,1,.82-2.26,7.78,7.78,0,0,0,9-6.35A11.4,11.4,0,0,0,287.68,298.93Z"/><path class="cls-5" d="M313.6,298.93a9.56,9.56,0,0,1-2.85,1.87c-11,4-6.35,11.71-6.2,11.74a6.32,6.32,0,0,1,1.45-1.68c5.28-3.88,6.35-8.35,6.35-8.35a16,16,0,0,1-5.88,8.72c-1,.74-1.74,2.56-2,4.37,0,0,.74-0.3,1.05-0.38a5.85,5.85,0,0,1,.82-2.26,7.78,7.78,0,0,0,9-6.35A11.4,11.4,0,0,0,313.6,298.93Z"/><g class="cls-6"><path class="cls-5" d="M368.09,298.93a9.56,9.56,0,0,1-2.85,1.87c-11,4-6.35,11.71-6.2,11.74a6.32,6.32,0,0,1,1.45-1.68c5.28-3.88,6.35-8.35,6.35-8.35a16,16,0,0,1-5.88,8.72c-1,.74-1.74,2.56-2,4.37,0,0,.74-0.3,1.05-0.38a5.85,5.85,0,0,1,.82-2.26,7.78,7.78,0,0,0,9-6.35A11.4,11.4,0,0,0,368.09,298.93Z"/></g><path class="cls-5" d="M340.85,298.93a9.56,9.56,0,0,1-2.85,1.87c-11,4-6.35,11.71-6.2,11.74a6.32,6.32,0,0,1,1.45-1.68c5.28-3.88,6.35-8.35,6.35-8.35a16,16,0,0,1-5.88,8.72c-1,.74-1.74,2.56-2,4.37,0,0,.74-0.3,1.05-0.38a5.85,5.85,0,0,1,.82-2.26,7.78,7.78,0,0,0,9-6.35A11.4,11.4,0,0,0,340.85,298.93Z"/><path class="cls-5" d="M283.91,339.54a2.73,2.73,0,0,1-.88,2.2,3.44,3.44,0,0,1-2.31.75h0l-0.21,1.65a3.64,3.64,0,0,1-1-.1l0.2-1.62a15.91,15.91,0,0,1-1.73-.29l-0.28-.06,0.18-1.45q1.1,0.15,2,.21l0.31-2.43a4.79,4.79,0,0,1-2-1,2.29,2.29,0,0,1-.6-1.68,2.5,2.5,0,0,1,.84-2.06,3.57,3.57,0,0,1,2.31-.68h0.18l0.25-1.93h1l-0.25,2q0.87,0.08,1.59.22l0.24,0.06-0.15,1.48q-1-.11-1.89-0.17l-0.28,2.25a4.83,4.83,0,0,1,2,1A2.35,2.35,0,0,1,283.91,339.54Zm-4.52-4a0.74,0.74,0,0,0,.21.55,2.39,2.39,0,0,0,.81.43l0.24-1.94Q279.39,334.63,279.39,335.54Zm2.66,4.13a0.81,0.81,0,0,0-.19-0.55,1.79,1.79,0,0,0-.68-0.41l-0.27,2.14A1.1,1.1,0,0,0,282,339.67Z"/><path class="cls-5" d="M313.77,339.54a2.73,2.73,0,0,1-.88,2.2,3.44,3.44,0,0,1-2.31.75h0l-0.21,1.65a3.64,3.64,0,0,1-1-.1l0.2-1.62a15.91,15.91,0,0,1-1.73-.29l-0.28-.06,0.18-1.45q1.1,0.15,2,.21L310,338.4a4.79,4.79,0,0,1-2-1,2.29,2.29,0,0,1-.6-1.68,2.5,2.5,0,0,1,.84-2.06,3.57,3.57,0,0,1,2.31-.68h0.18L311,331h1l-0.25,2q0.87,0.08,1.59.22l0.24,0.06-0.15,1.48q-1-.11-1.89-0.17l-0.28,2.25a4.83,4.83,0,0,1,2,1A2.35,2.35,0,0,1,313.77,339.54Zm-4.52-4a0.74,0.74,0,0,0,.21.55,2.39,2.39,0,0,0,.81.43l0.24-1.94Q309.25,334.63,309.25,335.54Zm2.66,4.13a0.81,0.81,0,0,0-.19-0.55,1.79,1.79,0,0,0-.68-0.41l-0.27,2.14A1.1,1.1,0,0,0,311.9,339.67Z"/><path class="cls-5" d="M368.25,339.54a2.73,2.73,0,0,1-.88,2.2,3.44,3.44,0,0,1-2.31.75h0l-0.21,1.65a3.64,3.64,0,0,1-1-.1l0.2-1.62a15.91,15.91,0,0,1-1.73-.29l-0.28-.06,0.18-1.45q1.1,0.15,2,.21l0.31-2.43a4.79,4.79,0,0,1-2-1,2.29,2.29,0,0,1-.6-1.68,2.5,2.5,0,0,1,.84-2.06,3.57,3.57,0,0,1,2.31-.68h0.18l0.25-1.93h1l-0.25,2q0.87,0.08,1.59.22l0.24,0.06-0.15,1.48q-1-.11-1.89-0.17l-0.28,2.25a4.83,4.83,0,0,1,2,1A2.35,2.35,0,0,1,368.25,339.54Zm-4.52-4a0.74,0.74,0,0,0,.21.55,2.39,2.39,0,0,0,.81.43l0.24-1.94Q363.73,334.63,363.73,335.54Zm2.66,4.13a0.81,0.81,0,0,0-.19-0.55,1.79,1.79,0,0,0-.68-0.41l-0.27,2.14A1.1,1.1,0,0,0,366.39,339.67Z"/><path class="cls-5" d="M341,339.54a2.73,2.73,0,0,1-.88,2.2,3.44,3.44,0,0,1-2.31.75h0l-0.21,1.65a3.64,3.64,0,0,1-1-.1l0.2-1.62a15.91,15.91,0,0,1-1.73-.29l-0.28-.06,0.18-1.45q1.1,0.15,2,.21l0.31-2.43a4.79,4.79,0,0,1-2-1,2.29,2.29,0,0,1-.6-1.68,2.5,2.5,0,0,1,.84-2.06,3.57,3.57,0,0,1,2.31-.68H338l0.25-1.93h1L339,333q0.87,0.08,1.59.22l0.24,0.06-0.15,1.48q-1-.11-1.89-0.17l-0.28,2.25a4.83,4.83,0,0,1,2,1A2.35,2.35,0,0,1,341,339.54Zm-4.52-4a0.74,0.74,0,0,0,.21.55,2.39,2.39,0,0,0,.81.43l0.24-1.94Q336.49,334.63,336.49,335.54Zm2.66,4.13a0.81,0.81,0,0,0-.19-0.55,1.79,1.79,0,0,0-.68-0.41L338,340.84A1.1,1.1,0,0,0,339.15,339.67Z"/><line class="cls-13" x1="281.21" y1="83.88" x2="364.18" y2="83.88"/><line class="cls-13" x1="281.21" y1="108.59" x2="364.18" y2="108.59"/><polygon class="cls-14" points="315.41 103.72 319.63 106.16 319.63 111.03 315.41 113.47 311.19 111.03 311.19 106.16 315.41 103.72"/><text class="cls-15" transform="translate(266.64 88.75)">A</text><text class="cls-15" transform="translate(266.64 112.79)">B</text><polygon class="cls-14" points="336.49 79 340.71 81.44 340.71 86.31 336.49 88.75 332.27 86.31 332.27 81.44 336.49 79"/><line class="cls-4" x1="512.96" y1="83.88" x2="595.93" y2="83.88"/><line class="cls-4" x1="512.96" y1="108.59" x2="595.93" y2="108.59"/><polygon class="cls-7" points="582.93 103.72 587.15 106.16 587.15 111.03 582.93 113.47 578.7 111.03 578.7 106.16 582.93 103.72"/><text class="cls-16" transform="translate(498.39 88.75)">A</text><text class="cls-16" transform="translate(498.39 112.79)">B</text><polygon class="cls-7" points="531.82 79 536.05 81.44 536.05 86.31 531.82 88.75 527.6 86.31 527.6 81.44 531.82 79"/></svg>