<svg id="Layer_1" data-name="Layer 1" xmlns="http://www.w3.org/2000/svg" viewBox="0 0 100 100"><defs><style>.cls-1{fill:blue;}.cls-2{fill:none;}</style></defs><title>SPKLogo</title><rect class="cls-1" x="26.92" y="63.46" width="10.58" height="3.85"/><path class="cls-1" d="M48.08,59.62A2,2,0,0,1,50,61.54v7.69a2,2,0,0,1-1.92,1.92H40.38a2,2,0,0,1-1.92-1.92V61.54a2,2,0,0,1,1.92-1.92h7.69Z"/><rect class="cls-1" x="26.92" y="48.08" width="25.97" height="3.85"/><rect class="cls-1" x="26.92" y="32.69" width="6.73" height="3.85"/><rect class="cls-1" x="50.96" y="63.46" width="22.12" height="3.85"/><path class="cls-1" d="M44.23,28.84a2,2,0,0,1,1.92,1.92v7.69a2,2,0,0,1-1.92,1.92H36.54a2,2,0,0,1-1.92-1.92V30.76a2,2,0,0,1,1.92-1.92h7.69Z"/><path class="cls-1" d="M63.46,44.23a2,2,0,0,1,1.92,1.92v7.69a2,2,0,0,1-1.92,1.92H55.77a2,2,0,0,1-1.92-1.92V46.15a2,2,0,0,1,1.92-1.92h7.69Z"/><rect class="cls-1" x="66.35" y="48.08" width="6.73" height="3.85"/><rect class="cls-1" x="47.11" y="32.69" width="25.97" height="3.85"/><rect class="cls-2" width="100" height="100"/></svg>